<svg width="1590" height="1284" viewBox="0 0 1590 1284" fill="none" xmlns="http://www.w3.org/2000/svg">
<path d="M701.137 89.197C701.137 89.197 783.776 76.5245 877.679 76.5245H1388.53C1388.53 76.5245 1538.79 72.3122 1542.54 97.6217C1546.3 122.931 1561.32 284.841 1561.32 284.841C1561.32 284.841 1583.85 394.645 1561.32 397.441C1538.79 400.273 1332.18 397.441 1332.18 397.441C1332.18 397.441 911.471 397.123 855.115 398.68C798.759 400.238 708.611 400.238 701.102 370.68C693.592 341.123 701.102 89.1616 701.102 89.1616L701.137 89.197Z" fill="#326BBA"/>
<path d="M407.877 973.99C407.877 973.99 490.589 961.317 584.576 961.317H1095.88C1095.88 961.317 1246.28 957.105 1250.03 982.414C1253.79 1007.76 1268.82 1169.63 1268.82 1169.63C1268.82 1169.63 1291.37 1279.44 1268.82 1282.23C1246.28 1285.07 1039.48 1282.23 1039.48 1282.23C1039.48 1282.23 618.398 1281.92 561.992 1283.47C505.586 1285.03 415.358 1285.03 407.841 1255.47C400.325 1225.92 407.841 973.954 407.841 973.954L407.877 973.99Z" fill="#D0220A"/>
<path d="M898.93 790.217C898.93 790.217 909.946 610.56 906.262 592.222C902.578 573.885 897.691 557.99 873.252 581.213C848.813 604.436 755.875 700.973 725.308 727.877C694.742 754.746 635.77 817.086 627.659 823.777C618.521 831.282 589.938 861.903 576.621 872.7C565.535 881.692 557.778 911.216 590.788 908.773C623.798 906.331 702.074 905.8 736.996 905.092C799.935 903.853 895.388 920.349 897.018 880.842C898.718 840.38 898.895 790.217 898.895 790.217H898.93Z" fill="#EFA900"/>
<path d="M1362.21 519.5C1373.65 509.601 1387.01 418.347 1375.56 416.396C1364.12 414.444 1226.73 378.716 1146.58 416.396C1066.42 454.075 986.306 507.614 972.947 620.652C959.588 733.69 992.026 813.022 1070.26 860.601C1148.5 908.179 1257.25 908.179 1287.81 904.241C1318.36 900.302 1379.97 884.408 1379.97 884.408C1379.97 884.408 1377.52 791.202 1360.32 781.304C1343.16 771.405 1268.73 811.036 1186.69 797.163C1104.65 783.29 1089.38 727.765 1087.46 686.112C1085.54 644.459 1082.52 600.57 1116.09 547.316C1152.33 489.803 1270.65 499.737 1291.64 501.689C1312.64 503.64 1362.24 519.535 1362.24 519.535L1362.21 519.5Z" fill="#FEDA9A"/>
<path d="M619.442 456.57C613.066 460.666 567.223 454.309 567.864 448.553C568.505 442.797 570.607 372.307 600.029 339.323C629.451 306.339 666.496 275.579 722.847 284.973C779.198 294.367 812.859 320.888 824.792 364.856C836.725 408.823 821.479 460.702 815.281 474.722C809.083 488.742 792.769 515.935 792.769 515.935C792.769 515.935 748.209 501.773 745.822 492.203C743.435 482.632 773 452.65 777.844 411.578C782.689 370.506 758.075 355.462 738.271 348.752C718.466 342.042 697.735 334.449 667.351 343.066C634.545 352.354 622.719 410.165 620.724 420.478C618.729 430.79 619.406 456.64 619.406 456.64L619.442 456.57Z" fill="#DBF1FB"/>
<path d="M228.734 239.803C228.734 239.803 373.636 230.693 406.424 227.963C439.211 225.234 466.575 227.963 472.034 274.435C477.492 320.906 474.763 501.369 472.034 580.629C469.305 659.889 472.884 815.751 475.188 837.622C477.492 859.494 488.445 911.424 450.164 911.424C411.882 911.424 250.604 916.883 245.11 895.012C239.616 873.141 239.651 629.83 242.381 602.465C245.11 575.099 228.699 239.767 228.699 239.767L228.734 239.803Z" fill="#5C8666"/>
<path d="M20.8529 866.895C8.74549 866.788 2.69178 927.085 0.355257 942.132C-1.98126 957.18 7.22322 972.936 27.5085 973.537C56.0778 974.423 171.594 991.276 220.165 992.09C268.737 992.905 358.799 987.983 372.145 989.612C385.492 991.24 417.07 997.613 417.814 980.017C418.557 962.42 425.071 888.28 411.76 885.164C398.484 882.084 249.549 875.746 232.768 876.313C215.988 876.879 35.6155 867.036 20.7821 866.895H20.8529Z" fill="#C4D8C8"/>
<path d="M1352.1 9.55191C1352.1 9.55191 1374.69 0.196757 1400.37 0.196757H1540.02C1540.02 0.196757 1581.1 -2.93349 1582.13 15.7768C1583.15 34.4516 1587.26 153.792 1587.26 153.792C1587.26 153.792 1593.42 234.751 1587.26 236.815C1581.1 238.878 1524.62 236.815 1524.62 236.815C1524.62 236.815 1409.61 236.601 1394.2 237.739C1378.8 238.878 1354.16 238.878 1352.1 217.108C1350.05 195.303 1352.1 9.55191 1352.1 9.55191Z" fill="#252525"/>
<path d="M1148.53 491.089C1148.53 491.089 1176.36 513.543 1204.92 542.115L1360.32 697.556C1360.32 697.556 1406.93 742.382 1402.7 748.9C1398.47 755.418 1368.67 794.374 1368.67 794.374C1368.67 794.374 1352.21 824.549 1344.77 818.288C1337.31 812.035 1275.06 748.565 1275.06 748.565C1275.06 748.565 1147.15 620.486 1129.67 603.669C1112.2 586.852 1084.78 559.422 1088.77 550.86C1092.76 542.297 1148.52 491.071 1148.52 491.071L1148.53 491.089Z" fill="#252525"/>
<path d="M1085.75 754.866C1085.75 754.866 1108.2 727.026 1136.76 698.45L1292.14 542.987C1292.14 542.987 1336.95 496.366 1343.47 500.598C1349.98 504.83 1388.92 534.641 1388.92 534.641C1388.92 534.641 1419.09 551.102 1412.83 558.551C1406.58 566.009 1343.13 628.284 1343.13 628.284C1343.13 628.284 1215.1 756.245 1198.29 773.726C1181.48 791.207 1154.06 818.641 1145.5 814.65C1136.94 810.659 1085.74 754.869 1085.74 754.869L1085.75 754.866Z" fill="#252525"/>
<path d="M242.967 760.129C242.967 760.129 256.44 771 270.27 784.833L345.509 860.09C345.509 860.09 368.072 881.792 366.024 884.948C363.976 888.103 349.548 906.964 349.548 906.964C349.548 906.964 341.582 921.573 337.976 918.542C334.367 915.514 304.228 884.785 304.228 884.785C304.228 884.785 242.299 822.776 233.839 814.634C225.379 806.492 212.102 793.212 214.034 789.067C215.965 784.921 242.965 760.12 242.965 760.12L242.967 760.129Z" fill="#252525"/>
<path d="M212.576 887.836C212.576 887.836 223.443 874.357 237.271 860.522L312.499 785.255C312.499 785.255 334.193 762.684 337.347 764.732C340.502 766.781 359.355 781.214 359.355 781.214C359.355 781.214 373.959 789.184 370.929 792.791C367.902 796.401 337.185 826.552 337.185 826.552C337.185 826.552 275.2 888.504 267.061 896.967C258.922 905.431 245.647 918.713 241.503 916.78C237.359 914.848 212.567 887.838 212.567 887.838L212.576 887.836Z" fill="#252525"/>
<path d="M591.148 1058.14C583.283 1055.57 571.755 1077.92 568.341 1083.33C564.927 1088.73 568.933 1096.83 582.057 1101.31C600.536 1107.63 673.582 1138.4 705.085 1148.88C736.588 1159.37 795.812 1176.28 804.291 1179.71C812.771 1183.14 832.517 1192.25 835.216 1185.51C837.914 1178.77 851.484 1151.09 843.214 1147.08C834.964 1143.1 738.848 1109.46 727.858 1106.17C716.867 1102.88 600.737 1061.29 591.102 1058.13L591.148 1058.14Z" fill="#FFDAD5"/>
</svg>
