<svg width="682" height="633" viewBox="0 0 682 633" fill="none" xmlns="http://www.w3.org/2000/svg">
<path d="M211 203C211 163.548 192.5 95.0393 135.5 95.0393C80.875 95.0393 52.625 105.702 42.875 68.7822C31.2877 24.9052 11 20 0 20" stroke="url(#paint0_linear_449_437)" stroke-width="40"/>
<path d="M682 304C682 448.146 565.146 565 421 565C276.854 565 51.5 448.146 51.5 304C51.5 159.854 276.854 43 421 43C565.146 43 682 159.854 682 304Z" fill="#C4C4C4"/>
<path d="M295 633C295 560.347 328.931 434.187 433.476 434.187C533.665 434.187 585.479 453.823 603.362 385.834C624.614 305.033 661.825 296 682 296" stroke="url(#paint1_linear_449_437)" stroke-width="40"/>
<defs>
<linearGradient id="paint0_linear_449_437" x1="16" y1="12.6693" x2="222.322" y2="189.67" gradientUnits="userSpaceOnUse">
<stop stop-color="#3CD0FF"/>
<stop offset="0.996279" stop-color="#38FF9F"/>
</linearGradient>
<linearGradient id="paint1_linear_449_437" x1="652.654" y1="282.5" x2="272.942" y2="606.939" gradientUnits="userSpaceOnUse">
<stop stop-color="#3CD0FF"/>
<stop offset="0.996279" stop-color="#38FF9F"/>
</linearGradient>
</defs>
</svg>
