<svg width="176" height="180" viewBox="0 0 176 180" fill="none" xmlns="http://www.w3.org/2000/svg">
<path d="M122.751 20.7984C122.751 20.7984 44.4051 1.86742 36.0433 2.09712C27.6814 2.32683 20.3046 3.28809 28.6833 16.0844C37.062 28.8807 72.5497 78.1836 82.0856 94.0217C91.6059 109.857 114.602 141.225 116.935 145.393C119.548 150.086 130.873 165.322 134.62 172.15C137.741 177.835 150.164 183.62 151.595 168.586C153.026 153.552 158.738 118.312 161.079 102.553C165.314 74.155 179.836 32.5156 162.548 28.7092C144.843 24.7967 122.748 20.8143 122.748 20.8143L122.751 20.7984Z" fill="#F8D595"/>
<path d="M121.978 45.8616C121.978 45.8616 127.029 45.0169 132.761 45.0169H163.978C163.978 45.0169 173.162 44.7399 173.388 46.4294C173.615 48.1188 174.535 59.017 174.535 59.017C174.535 59.017 175.908 66.3978 174.535 66.5778C173.162 66.7578 160.539 66.5778 160.539 66.5778C160.539 66.5778 134.84 66.5501 131.388 66.6609C127.936 66.7717 122.444 66.7717 121.978 64.7776C121.512 62.7835 121.978 45.8616 121.978 45.8616Z" fill="#326BBA"/>
<path d="M104.185 105.635C104.185 105.635 109.236 104.79 114.968 104.79H146.185C146.185 104.79 155.369 104.513 155.595 106.203C155.822 107.892 156.742 118.79 156.742 118.79C156.742 118.79 158.115 126.171 156.742 126.351C155.369 126.531 142.746 126.351 142.746 126.351C142.746 126.351 117.047 126.324 113.595 126.434C110.143 126.545 104.651 126.545 104.185 124.551C103.719 122.557 104.185 105.635 104.185 105.635Z" fill="#D0220A"/>
<path d="M134.25 93.0732C134.25 93.0732 134.918 80.9283 134.704 79.6888C134.49 78.4492 134.175 77.3768 132.689 78.9506C131.203 80.5244 125.525 87.0426 123.649 88.8671C121.773 90.6916 118.185 94.8977 117.681 95.3434C117.127 95.8448 115.377 97.92 114.571 98.6442C113.891 99.257 113.425 101.249 115.44 101.082C117.454 100.914 122.239 100.887 124.367 100.831C128.207 100.747 134.036 101.861 134.137 99.1874C134.238 96.4576 134.25 93.0593 134.25 93.0593V93.0732Z" fill="#EFA900"/>
<path d="M162.549 74.8592C163.248 74.1862 164.074 67.9882 163.375 67.862C162.676 67.7358 154.225 65.31 149.307 67.862C144.389 70.4141 139.458 74.06 138.632 81.7302C137.806 89.4005 139.801 94.7851 144.617 98.0243C149.434 101.263 156.106 101.249 157.987 100.983C159.868 100.717 163.655 99.6368 163.655 99.6368C163.655 99.6368 163.502 93.3127 162.448 92.6397C161.393 91.9666 156.818 94.6589 151.772 93.7194C146.727 92.7799 145.787 89.0078 145.672 86.1753C145.558 83.3428 145.367 80.37 147.426 76.7523C149.65 72.854 156.919 73.5271 158.216 73.6533C159.512 73.7795 162.549 74.8592 162.549 74.8592Z" fill="#FEDA9A"/>
<path d="M146.992 76.5045L146.991 76.505C144.923 80.1398 145.048 83.1659 145.162 85.9257C145.165 86.0159 145.169 86.1058 145.173 86.1955C145.231 87.6488 145.502 89.4005 146.449 90.9214C147.408 92.4634 149.03 93.7173 151.681 94.2109C154.311 94.7007 156.801 94.2411 158.726 93.7648C159.158 93.6579 159.55 93.5535 159.909 93.458C160.373 93.3343 160.782 93.2255 161.151 93.145C161.469 93.0756 161.719 93.037 161.909 93.0311C162.002 93.0282 162.069 93.0336 162.117 93.0425C162.157 93.0501 162.174 93.0588 162.178 93.0607C162.18 93.0624 162.198 93.0768 162.227 93.1184C162.261 93.1667 162.302 93.2377 162.345 93.336C162.433 93.5338 162.517 93.803 162.595 94.132C162.75 94.7881 162.865 95.6166 162.949 96.4414C163.033 97.2628 163.085 98.0654 163.115 98.6637C163.127 98.8986 163.136 99.1015 163.142 99.2612C163.07 99.281 162.99 99.3033 162.902 99.3275C162.519 99.4324 161.99 99.5749 161.402 99.7257C160.219 100.029 158.826 100.359 157.917 100.488C157.03 100.614 154.94 100.686 152.476 100.324C150.012 99.9616 147.221 99.1724 144.896 97.6094C140.284 94.5073 138.315 89.3381 139.129 81.7838C139.928 74.3647 144.672 70.8306 149.537 68.3059C151.858 67.1017 155.073 67.0535 157.87 67.3548C160.093 67.5943 161.935 68.0355 162.81 68.2452C162.918 68.2709 163.011 68.2932 163.088 68.3111C163.116 68.4434 163.135 68.6478 163.139 68.9221C163.149 69.4987 163.092 70.2807 162.99 71.0934C162.889 71.9042 162.745 72.7266 162.586 73.3816C162.506 73.7099 162.424 73.9863 162.346 74.1944C162.338 74.2148 162.331 74.234 162.324 74.252C162.289 74.2402 162.253 74.2279 162.215 74.2149C161.907 74.1108 161.482 73.9705 161.017 73.826C160.103 73.5428 158.971 73.2245 158.264 73.1557C157.609 73.0919 155.42 72.8867 153.102 73.1981C150.816 73.5052 148.227 74.3388 146.992 76.5045Z" stroke="#FEB737" stroke-opacity="0.09"/>
<path d="M117.138 70.8106C116.746 71.0929 113.952 70.6554 113.99 70.2603C114.028 69.8651 114.154 65.0245 115.949 62.7665C117.745 60.5085 120.008 58.3916 123.434 59.0408C126.861 59.69 128.921 61.5105 129.655 64.5306C130.388 67.5506 129.452 71.107 129.073 72.0667C128.694 73.0263 127.708 74.8892 127.708 74.8892C127.708 74.8892 124.989 73.9154 124.85 73.2521C124.711 72.5888 126.506 70.5425 126.797 67.72C127.088 64.8975 125.596 63.8673 124.382 63.4016C123.169 62.9358 121.917 62.4137 120.058 63.0064C118.061 63.6415 117.34 67.6071 117.214 68.3127C117.087 69.0184 117.138 70.7965 117.138 70.7965V70.8106Z" fill="#DBF1FB"/>
<path d="M94.7119 58.1245C94.7119 58.1245 103.533 57.511 105.531 57.3298C107.528 57.1485 109.187 57.3298 109.526 60.4667C109.866 63.6037 109.69 75.8029 109.526 81.1567C109.363 86.5104 109.577 97.0366 109.715 98.5145C109.853 99.9923 110.519 103.506 108.194 103.506C105.87 103.506 96.0438 103.868 95.7046 102.404C95.3653 100.94 95.3779 84.4888 95.5412 82.6345C95.7046 80.7802 94.7119 58.1245 94.7119 58.1245Z" fill="#5C8666"/>
<path d="M80.4076 98.2368C79.6678 98.2368 79.3041 102.363 79.1662 103.394C79.0283 104.426 79.58 105.5 80.8213 105.542C82.5643 105.599 89.5861 106.758 92.5453 106.814C95.5045 106.871 100.984 106.531 101.799 106.644C102.614 106.758 104.533 107.196 104.583 105.98C104.633 104.765 105.022 99.6922 104.219 99.4803C103.417 99.2683 94.351 98.8303 93.3228 98.8727C92.2946 98.9151 81.3229 98.2368 80.4201 98.2227L80.4076 98.2368Z" fill="#C4D8C8"/>
<path d="M146.991 83.5431C146.991 83.5431 146.618 79.5711 149.854 76.9914C153.09 74.4117 156.083 74.8757 157.136 74.9986C158.189 75.1214 161.438 75.9267 162.426 77.9742C163.415 80.0216 164.237 81.8779 163.98 84.2665C163.723 86.6552 162.542 90.3542 159.999 91.6782C157.457 93.0022 154.054 93.5891 150.907 91.6782C146.965 89.2895 146.978 83.5295 146.978 83.5295L146.991 83.5431Z" fill="#252525"/>
<path d="M91.7547 96.1466C91.7547 96.1466 91.5319 93.5259 93.4993 91.831C95.4667 90.1361 97.2856 90.4352 97.929 90.5207C98.5724 90.6061 100.54 91.1331 101.146 92.4862C101.752 93.8393 102.247 95.0641 102.099 96.6309C101.95 98.1976 101.233 100.647 99.6737 101.516C98.1146 102.385 96.0606 102.77 94.1427 101.516C91.7547 99.9495 91.7547 96.1608 91.7547 96.1608V96.1466Z" fill="#252525"/>
<path d="M134.792 113.211C134.856 113.464 134.868 114.096 134.894 114.743C134.906 115.305 134.97 115.445 134.957 115.614C134.843 116.85 125.22 116.808 123.191 116.794C122.595 116.794 117.156 116.513 112.972 116.64C108.788 116.766 105.834 116.85 105.276 116.893C102.157 117.117 99.9511 117.426 100.141 120.532C100.293 123.061 101.853 123.637 104.034 123.989C106.214 124.34 109.092 124.284 115.546 124.438L126.576 124.312C127.071 124.298 130.101 124.199 130.9 124.171C131.889 124.129 134.64 124.326 135.287 124.368C135.502 124.382 135.477 125.239 135.477 126.054C135.477 126.813 135.515 127.53 135.439 127.572C135.198 127.684 134.526 127.53 133.461 127.544C131.559 127.558 128.884 127.783 128.465 127.754C127.578 127.698 118.475 128.05 117.638 128.106C116.738 128.162 108.002 127.853 108.002 127.853C108.002 127.853 104.896 127.74 104.325 127.614C103.755 127.487 98.9622 126.616 97.9986 125.127C97.1491 123.806 96.8322 124.143 96.5786 119.773C96.287 114.785 101.739 112.818 106.595 112.775C108.814 112.761 112.503 112.775 113.631 112.803C114.76 112.832 126.057 112.537 127.489 112.565C129.011 112.593 134.577 112.354 134.792 113.225V113.211Z" fill="#FFDAD5"/>
</svg>
