<svg width="525" height="502" viewBox="0 0 525 502" fill="none" xmlns="http://www.w3.org/2000/svg">
<path d="M408.588 437.006C408.032 434.569 408.031 434.569 408.03 434.57L408.023 434.571L407.994 434.578L407.88 434.604L407.429 434.707L405.667 435.109C404.123 435.462 401.854 435.98 398.957 436.643C393.163 437.969 384.855 439.873 374.799 442.184C354.687 446.805 327.582 453.056 299.613 459.573C243.747 472.589 184.238 486.71 170.313 490.99C156.511 495.233 138.751 499.808 122.971 498.741C115.117 498.21 107.901 496.288 101.936 492.355C96.0092 488.448 91.1499 482.447 88.1427 473.44C81.8469 454.573 60.589 362.171 40.8568 274.234C31.003 230.321 21.5458 187.596 14.5519 155.848C11.055 139.975 8.17399 126.846 6.16723 117.686C5.16385 113.105 4.37904 109.517 3.84509 107.075C3.66373 106.245 3.51131 105.547 3.3891 104.988C3.4762 104.93 3.56734 104.869 3.66247 104.806C4.75639 104.083 6.37806 103.032 8.47302 101.735C12.6636 99.1408 18.7441 95.5646 26.2791 91.6529C41.3622 83.8228 62.2101 74.6818 85.3554 69.3583L340.136 10.7574L340.227 10.7366L340.316 10.709L340.317 10.7086L340.325 10.7062L340.361 10.6952C340.393 10.6853 340.443 10.67 340.51 10.6498C340.644 10.6094 340.845 10.5492 341.11 10.4715C341.639 10.3161 342.421 10.0909 343.423 9.81512C345.427 9.26336 348.306 8.5096 351.794 7.7064C358.779 6.09766 368.156 4.30153 377.797 3.5218C387.478 2.73875 397.216 2.99992 405.025 5.36186C412.768 7.70416 418.302 11.9913 420.378 19.1517C425.138 35.5681 441.632 96.5651 456.947 153.5C464.602 181.958 471.959 209.389 477.403 229.705C480.124 239.863 482.367 248.242 483.93 254.082C484.711 257.002 485.323 259.287 485.739 260.842L486.213 262.615L486.334 263.069L486.365 263.184L486.373 263.212L486.375 263.22C486.375 263.221 486.375 263.222 488.79 262.576M408.588 437.006C408.115 434.552 408.116 434.552 408.116 434.551L408.12 434.551L408.134 434.548L408.19 434.537L408.412 434.494C408.608 434.456 408.9 434.4 409.281 434.326C410.043 434.178 411.163 433.96 412.592 433.681C415.451 433.121 419.546 432.316 424.493 431.329C434.389 429.356 447.688 426.66 461.31 423.769C474.936 420.877 488.865 417.794 500.026 415.045C505.61 413.671 510.475 412.386 514.254 411.256C517.961 410.147 520.359 409.26 521.426 408.667C521.476 408.568 521.612 408.27 521.733 407.589C521.931 406.475 521.995 404.845 521.888 402.681C521.675 398.378 520.817 392.457 519.47 385.399C516.781 371.313 512.217 353.064 507.312 334.953C502.411 316.855 497.184 298.946 493.181 285.559C491.18 278.866 489.485 273.306 488.291 269.419C487.694 267.476 487.222 265.951 486.9 264.913C486.802 264.599 486.718 264.329 486.649 264.106L486.531 263.728L486.436 263.425L486.413 263.349L486.407 263.33L486.405 263.326C486.405 263.325 486.405 263.324 488.79 262.576M408.588 437.006L408.032 434.569L408.074 434.56L408.115 434.552L408.588 437.006ZM488.79 262.576L486.405 263.324L486.389 263.273L486.375 263.222L488.79 262.576Z" fill="#326BBA" stroke="#326BBA" stroke-width="5"/>
</svg>
