<svg width="438" height="632" viewBox="0 0 438 632" fill="none" xmlns="http://www.w3.org/2000/svg">
<path d="M391.399 250.021C389.715 251.868 389.715 251.869 389.716 251.87L389.721 251.874L389.741 251.893L389.822 251.967L390.142 252.259C390.425 252.517 390.845 252.9 391.392 253.401C392.486 254.402 394.091 255.872 396.134 257.747C400.218 261.497 406.05 266.865 413.04 273.34C427.02 286.29 445.626 303.66 464.137 321.348C482.655 339.041 501.054 357.03 514.631 371.223C521.425 378.326 526.972 384.438 530.716 389.067C532.595 391.391 533.966 393.275 534.811 394.688C535.236 395.398 535.48 395.911 535.598 396.248C535.606 396.271 535.614 396.292 535.62 396.312C535.484 396.636 535.225 397.133 534.778 397.825C534.211 398.705 533.428 399.767 532.441 400.995C530.469 403.451 527.776 406.454 524.585 409.815C518.208 416.531 509.958 424.556 501.772 432.286C493.593 440.011 485.502 447.419 479.454 452.898C476.431 455.636 473.92 457.892 472.165 459.462C471.287 460.247 470.599 460.861 470.13 461.279C469.896 461.487 469.716 461.647 469.595 461.754L469.459 461.875L469.425 461.905L469.416 461.913L469.414 461.915C469.414 461.915 469.413 461.915 471.072 463.786L469.413 461.915L469.36 461.963L469.309 462.013L469.668 462.375C469.309 462.014 469.308 462.014 469.308 462.015L469.304 462.019L469.287 462.036L469.219 462.102L468.954 462.366L467.918 463.397C467.01 464.301 465.676 465.628 463.973 467.325C460.568 470.717 455.687 475.584 449.785 481.483C437.98 493.279 422.09 509.201 405.747 525.702C389.404 542.201 372.603 559.285 358.98 573.403C345.409 587.468 334.867 598.717 331.149 603.469C323.941 612.679 314.124 623.35 301.407 627.473C288.984 631.5 273.122 629.465 253.258 611.748C232.965 593.645 141.345 502.028 54.6938 414.827C11.3917 371.25 -30.6378 328.808 -61.842 297.261C-77.4441 281.487 -90.3397 268.437 -99.3347 259.33C-103.832 254.777 -107.355 251.209 -109.753 248.78L-112.483 246.014C-112.452 245.875 -112.419 245.724 -112.382 245.563C-112.127 244.427 -111.729 242.764 -111.166 240.677C-110.039 236.503 -108.252 230.645 -105.618 223.939C-100.339 210.499 -91.7146 193.798 -78.3097 180.393L71.171 30.9122L71.2818 30.8015L71.3772 30.6786L71.3774 30.6783L71.3779 30.6777L71.3804 30.6745L71.3968 30.6536C71.4123 30.6339 71.437 30.6026 71.4706 30.5603C71.5379 30.4757 71.6412 30.347 71.7792 30.1782C72.055 29.8405 72.4693 29.3427 73.0115 28.7164C74.0964 27.4632 75.6906 25.6991 77.7108 23.677C81.762 19.622 87.4743 14.5817 94.1824 10.5321C100.902 6.47525 108.474 3.50172 116.287 3.36688C124.015 3.23351 132.203 5.87004 140.293 13.4393C157.33 29.3783 219.665 88.966 277.759 144.587C306.802 172.393 334.779 199.203 355.496 219.061C365.854 228.99 374.398 237.181 380.351 242.89C383.328 245.744 385.657 247.978 387.242 249.498L389.05 251.232L389.512 251.676L389.629 251.788L389.659 251.816L389.666 251.823C389.668 251.825 389.669 251.825 391.399 250.021ZM391.399 250.021L389.715 251.868L389.691 251.847L389.669 251.825L391.399 250.021ZM535.667 396.49C535.666 396.488 535.665 396.482 535.664 396.471C535.667 396.485 535.667 396.492 535.667 396.49Z" fill="#D0220A" stroke="#D0220A" stroke-width="5"/>
</svg>
