<svg width="438" height="591" viewBox="0 0 438 591" fill="none" xmlns="http://www.w3.org/2000/svg">
<path d="M-43.1403 508.435C-40.9714 507.192 -40.9718 507.192 -40.9724 507.19L-40.9754 507.185L-40.9872 507.165L-41.0341 507.083L-41.2196 506.759L-41.944 505.497C-42.5791 504.39 -43.5125 502.765 -44.7055 500.69C-47.0912 496.54 -50.5151 490.59 -54.6677 483.392C-62.9726 468.996 -74.1928 449.607 -85.8531 429.632C-97.5125 409.659 -109.616 389.094 -119.686 372.35C-129.717 355.67 -137.821 342.629 -141.434 337.827C-148.436 328.52 -156.168 316.328 -156.856 303.036C-157.529 290.052 -151.484 275.321 -129.324 260.78C-106.68 245.926 5.06585 181.408 111.284 120.529C164.364 90.1071 216.024 60.6163 254.415 38.731C273.61 27.7883 289.487 18.7471 300.566 12.4416C306.105 9.28887 310.445 6.82005 313.399 5.13944L316.759 3.22885C316.884 3.29362 317.019 3.36377 317.163 3.43929C318.189 3.97794 319.686 4.78922 321.548 5.86874C325.273 8.02863 330.447 11.2575 336.218 15.5191C347.786 24.0606 361.627 36.6609 371.066 53.0092L476.33 235.331L476.408 235.467L476.502 235.591L476.502 235.591L476.503 235.592L476.505 235.595L476.521 235.616L476.541 235.642C476.554 235.661 476.571 235.684 476.592 235.711C476.656 235.798 476.753 235.93 476.88 236.106C477.133 236.459 477.505 236.985 477.968 237.668C478.894 239.035 480.18 241.023 481.604 243.487C484.46 248.429 487.836 255.222 490.002 262.718C492.172 270.227 493.08 278.275 491.197 285.823C489.334 293.289 484.689 300.483 475.325 306.313C455.601 318.593 382.214 363.197 313.735 404.745C279.501 425.515 246.5 445.518 222.058 460.328C209.837 467.733 199.755 473.839 192.729 478.095C189.216 480.223 186.467 481.888 184.596 483.021L182.462 484.313L181.916 484.643L181.778 484.727L181.744 484.748L181.735 484.753C181.733 484.754 181.732 484.755 183.027 486.893M-43.1403 508.435C-40.9039 507.318 -40.9038 507.318 -40.9036 507.319L-40.9023 507.321L-40.8973 507.331L-40.8769 507.372L-40.7955 507.535C-40.7235 507.678 -40.6163 507.892 -40.476 508.171C-40.1955 508.73 -39.7825 509.55 -39.2534 510.597C-38.1952 512.69 -36.6729 515.687 -34.8175 519.301C-31.1062 526.531 -26.0652 536.223 -20.7426 546.083C-15.4164 555.949 -9.82394 565.953 -5.007 573.819C-2.59628 577.755 -0.402333 581.118 1.45139 583.649C2.37884 584.915 3.19821 585.94 3.89803 586.713C4.44636 587.318 4.85643 587.695 5.13257 587.909C5.1517 587.908 5.17247 587.907 5.19487 587.905C5.54865 587.878 6.1043 587.775 6.89725 587.55C8.47276 587.101 10.6386 586.269 13.3577 585.06C18.7759 582.653 26.0844 578.892 34.6686 574.187C51.821 564.785 73.8674 551.722 95.6604 538.47C117.446 525.222 138.952 511.801 155.012 501.691C163.042 496.637 169.709 492.41 174.369 489.448C176.699 487.966 178.527 486.801 179.772 486.006C180.395 485.609 180.872 485.304 181.193 485.099L181.556 484.866L181.648 484.808L181.671 484.793L181.677 484.789C181.678 484.788 181.679 484.788 183.027 486.893M-43.1403 508.435L-40.9714 507.192L-40.9359 507.254L-40.9039 507.318L-43.1403 508.435ZM183.027 486.893L181.679 484.788L181.705 484.771L181.732 484.755L183.027 486.893ZM4.94762 587.908C4.95021 587.909 4.95645 587.909 4.96612 587.911C4.94911 587.91 4.94344 587.908 4.94762 587.908Z" fill="#5C8666" stroke="#5C8666" stroke-width="5"/>
</svg>
