<svg width="438" height="567" viewBox="0 0 438 567" fill="none" xmlns="http://www.w3.org/2000/svg">
<path d="M265.757 8.93659C265.757 8.93659 -38.7701 -4.72717 -69.7206 2.00402C-100.671 8.73521 -127.452 17.4344 -87.4553 58.0988C-47.4585 98.7632 118.571 253.179 164.97 304.098C211.31 355.018 318.497 452.969 330.05 466.493C343.01 481.731 395.65 529.195 414.3 551.405C429.831 569.894 480.039 582.19 474.994 526.466C469.95 470.742 466.897 338.462 464.737 279.458C460.907 173.117 486.215 11.335 419.271 9.67054C350.706 7.91273 265.758 8.99646 265.758 8.99646L265.757 8.93659Z" fill="#EFA900"/>
</svg>
