<svg width="25" height="25" viewBox="0 0 25 25" fill="none" xmlns="http://www.w3.org/2000/svg">
<path d="M7.42484 0.416504H17.5748C21.4415 0.416504 24.5832 3.55817 24.5832 7.42484V17.5748C24.5832 19.4336 23.8448 21.2162 22.5305 22.5305C21.2162 23.8448 19.4336 24.5832 17.5748 24.5832H7.42484C3.55817 24.5832 0.416504 21.4415 0.416504 17.5748V7.42484C0.416504 5.56611 1.15488 3.78352 2.4692 2.4692C3.78352 1.15488 5.56611 0.416504 7.42484 0.416504ZM7.18317 2.83317C6.02948 2.83317 4.92304 3.29147 4.10726 4.10726C3.29147 4.92304 2.83317 6.02948 2.83317 7.18317V17.8165C2.83317 20.2211 4.77859 22.1665 7.18317 22.1665H17.8165C18.9702 22.1665 20.0766 21.7082 20.8924 20.8924C21.7082 20.0766 22.1665 18.9702 22.1665 17.8165V7.18317C22.1665 4.77859 20.2211 2.83317 17.8165 2.83317H7.18317ZM18.8436 4.64567C19.2442 4.64567 19.6284 4.8048 19.9116 5.08806C20.1949 5.37132 20.354 5.7555 20.354 6.15609C20.354 6.55668 20.1949 6.94086 19.9116 7.22411C19.6284 7.50737 19.2442 7.6665 18.8436 7.6665C18.443 7.6665 18.0588 7.50737 17.7756 7.22411C17.4923 6.94086 17.3332 6.55668 17.3332 6.15609C17.3332 5.7555 17.4923 5.37132 17.7756 5.08806C18.0588 4.8048 18.443 4.64567 18.8436 4.64567ZM12.4998 6.45817C14.1022 6.45817 15.6389 7.0947 16.7719 8.22773C17.905 9.36077 18.5415 10.8975 18.5415 12.4998C18.5415 14.1022 17.905 15.6389 16.7719 16.7719C15.6389 17.905 14.1022 18.5415 12.4998 18.5415C10.8975 18.5415 9.36077 17.905 8.22773 16.7719C7.0947 15.6389 6.45817 14.1022 6.45817 12.4998C6.45817 10.8975 7.0947 9.36077 8.22773 8.22773C9.36077 7.0947 10.8975 6.45817 12.4998 6.45817ZM12.4998 8.87484C11.5384 8.87484 10.6164 9.25676 9.93658 9.93658C9.25676 10.6164 8.87484 11.5384 8.87484 12.4998C8.87484 13.4612 9.25676 14.3833 9.93658 15.0631C10.6164 15.7429 11.5384 16.1248 12.4998 16.1248C13.4612 16.1248 14.3833 15.7429 15.0631 15.0631C15.7429 14.3833 16.1248 13.4612 16.1248 12.4998C16.1248 11.5384 15.7429 10.6164 15.0631 9.93658C14.3833 9.25676 13.4612 8.87484 12.4998 8.87484Z" fill="#252525"/>
</svg>
