<svg width="51" height="50" viewBox="0 0 51 50" fill="none" xmlns="http://www.w3.org/2000/svg">
<path d="M24.0533 0H27.6139C31.4248 0 35.7605 1.57997 40.6211 4.73991C44.2867 7.60817 46.943 10.9221 48.5901 14.6816C50.0757 18.2628 50.8185 21.285 50.8185 23.7482V25.8143C50.8185 31.3563 48.5497 36.8498 44.0121 42.2946C38.7479 47.4315 32.6359 50 25.6761 50C16.9885 50 9.89149 45.9407 4.38504 37.8221C2.02743 33.4468 0.848633 29.1444 0.848633 24.9149C0.848633 17.9468 3.70682 11.6675 9.4232 6.07681C14.752 2.0256 19.6287 0 24.0533 0ZM12.5236 21.6578V29.3875C12.5236 33.6007 13.8558 36.4123 16.5202 37.8221C17.7152 38.5027 21.5584 38.7538 28.0499 38.5756C33.0235 38.5756 35.8816 38.0327 36.6245 36.947C38.3038 35.602 39.1435 33.3738 39.1435 30.2625V20.3209C39.1435 16.3993 37.7629 13.8308 35.0016 12.6155L33.1607 12.0078L31.2956 11.8619H20.5169C16.6736 11.8619 14.1061 13.7417 12.8143 17.5012C12.6205 18.6518 12.5236 20.0373 12.5236 21.6578ZM20.9529 14.244H31.2956C35.042 14.244 36.9151 16.221 36.9151 20.175V30.7001C36.4145 34.3623 34.8885 36.1935 32.3372 36.1935H28.0499C26.0475 36.1935 23.9321 36.2421 21.7037 36.3393C17.9897 36.3393 15.8178 35.1564 15.188 32.7905C14.9943 31.4779 14.8974 29.5009 14.8974 26.8595V23.578C14.8974 18.6356 15.293 16.1643 16.0842 16.1643C16.8755 14.8841 18.4984 14.244 20.9529 14.244ZM31.441 18.2547C31.8769 19.2432 32.426 19.7375 33.088 19.7375C33.7501 19.7375 34.2911 19.2432 34.7109 18.2547C34.4848 17.0556 33.8874 16.456 32.9185 16.456C31.9335 16.7639 31.441 17.3635 31.441 18.2547ZM19.0393 25.3768C19.0393 28.5691 20.864 30.7892 24.5135 32.0369H27.4686C31.005 30.7568 32.7732 28.4881 32.7732 25.2309V24.9149C32.7732 23.0676 31.8366 21.3418 29.9634 19.7375C28.6877 18.8462 27.3636 18.4006 25.991 18.4006H25.8457C22.7937 18.4006 20.6703 19.9806 19.4753 23.1405C19.3138 23.3512 19.1685 24.0966 19.0393 25.3768ZM25.8457 20.7584H25.991C28.1225 20.7584 29.5516 21.9008 30.2783 24.1857C30.3752 24.3153 30.4236 24.6638 30.4236 25.2309C29.9553 28.2936 28.4778 29.825 25.991 29.825C24.021 29.825 22.5919 28.8365 21.7037 26.8595C21.5745 26.6975 21.4696 26.2032 21.3888 25.3768C21.7441 22.2978 23.2297 20.7584 25.8457 20.7584Z" fill="#11C7D5"/>
</svg>
