<svg width="29" height="29" viewBox="0 0 29 29" fill="none" xmlns="http://www.w3.org/2000/svg">
<path d="M26.5336 16.5773V25.4936H21.3644V17.1742C21.3644 15.0838 20.6164 13.658 18.7459 13.658C17.3177 13.658 16.467 14.6198 16.0936 15.549C15.9571 15.8813 15.922 16.3441 15.922 16.8093V25.4936H10.7504C10.7504 25.4936 10.8205 11.4044 10.7504 9.94353H15.922V12.1475L15.8882 12.1983H15.922V12.1475C16.6084 11.0902 17.8348 9.57862 20.5814 9.57862C23.9828 9.57862 26.5336 11.8019 26.5336 16.5773ZM5.34188 2.44824C3.57409 2.44824 2.4165 3.60824 2.4165 5.13437C2.4165 6.62666 3.54025 7.8217 5.27421 7.8217H5.30805C7.11209 7.8217 8.23221 6.62666 8.23221 5.13437C8.2008 3.60824 7.11209 2.44824 5.34188 2.44824ZM2.72342 25.4936H7.89267V9.94353H2.72342V25.4936Z" fill="#252525"/>
</svg>
