<svg width="12" height="12" viewBox="0 0 12 12" fill="none" xmlns="http://www.w3.org/2000/svg">
<path d="M4.33439 11.4996C4.58298 11.4996 4.7845 11.3001 4.7845 11.054C4.7845 10.8079 4.58298 10.6084 4.33439 10.6084C4.0858 10.6084 3.88428 10.8079 3.88428 11.054C3.88428 11.3001 4.0858 11.4996 4.33439 11.4996Z" stroke="black" stroke-miterlimit="10"/>
<path d="M3.68704 2.18343H11L10.0025 9.01618H3.17858L1.76156 0.5H0" stroke="black" stroke-miterlimit="10"/>
<path d="M4.33439 11.4996C4.58298 11.4996 4.7845 11.3001 4.7845 11.054C4.7845 10.8079 4.58298 10.6084 4.33439 10.6084C4.0858 10.6084 3.88428 10.8079 3.88428 11.054C3.88428 11.3001 4.0858 11.4996 4.33439 11.4996Z" fill="black" stroke="black" stroke-miterlimit="10"/>
<path d="M8.97453 11.4996C9.22313 11.4996 9.42465 11.3001 9.42465 11.054C9.42465 10.8079 9.22313 10.6084 8.97453 10.6084C8.72594 10.6084 8.52441 10.8079 8.52441 11.054C8.52441 11.3001 8.72594 11.4996 8.97453 11.4996Z" fill="black" stroke="black" stroke-miterlimit="10"/>
</svg>
