<svg width="103" height="196" viewBox="0 0 103 196" fill="none" xmlns="http://www.w3.org/2000/svg">
<path d="M105.164 160.145C106.53 159.819 111.718 152.235 110.881 151.496C110.045 150.758 100.529 140.624 92.3679 140.008C84.2072 139.392 75.306 140.223 69.1438 149.769C62.9816 159.315 62.0444 168.119 66.2395 176.368C70.4346 184.617 79.2239 190.047 81.8753 191.228C84.5267 192.409 90.2248 194.063 90.2248 194.063C90.2248 194.063 94.2086 185.512 93.2659 183.754C92.3231 181.996 84.5212 181.847 78.5034 176.475C72.4857 171.103 73.744 165.309 75.4676 161.441C77.1913 157.574 78.9074 153.457 84.0104 150.318C89.5164 146.94 98.6371 153.773 100.259 154.999C101.882 156.226 105.164 160.145 105.164 160.145Z" fill="#FEDA9A"/>
<path d="M44.6763 130.497C43.5115 131.335 35.2073 130.036 35.32 128.864C35.4327 127.691 35.8085 113.328 41.1442 106.628C46.4799 99.9285 53.206 93.6473 63.389 95.5735C73.572 97.4998 79.6968 102.902 81.8761 111.863C84.0555 120.824 81.2749 131.376 80.1477 134.224C79.0204 137.071 76.0895 142.599 76.0895 142.599C76.0895 142.599 68.0108 139.709 67.5974 137.741C67.1841 135.773 72.5198 129.701 73.3841 121.326C74.2483 112.952 69.8144 109.895 66.2071 108.513C62.5999 107.131 58.8799 105.582 53.3563 107.34C47.4193 109.225 45.2775 120.991 44.9018 123.085C44.526 125.179 44.6763 130.455 44.6763 130.455V130.497Z" fill="#DBF1FB"/>
<path d="M92.74 26.2901C92.7475 26.9011 92.4424 28.334 92.1581 29.8067C91.8901 31.0813 91.9568 31.439 91.8398 31.8107C90.9348 34.5226 69.5865 28.1813 65.0889 26.8329C63.7656 26.4461 51.8347 22.2824 42.4765 19.8515C33.1183 17.4207 26.5135 15.6931 25.2524 15.426C18.2075 13.908 13.1454 13.1725 11.9313 20.2925C10.9364 26.0898 14.096 28.4 18.7538 30.607C23.4115 32.8139 29.8326 34.5554 44.0826 39.0926L68.6451 45.9675C69.7506 46.2568 76.5318 48.002 78.3204 48.4572C80.5388 49.0041 86.545 51.2332 87.9588 51.7479C88.43 51.9194 87.922 53.8341 87.4926 55.6703C87.0927 57.3799 86.7995 59.0191 86.6084 59.0647C86.0142 59.1616 84.6033 58.3772 82.2308 57.7176C78 56.5148 71.9406 55.2849 71.0262 54.95C69.0849 54.2473 48.6837 49.1298 46.7957 48.7133C44.767 48.2557 25.5303 41.8889 25.5303 41.8889C25.5303 41.8889 18.6913 39.6194 17.4909 38.9642C16.2906 38.3089 6.10662 33.2353 4.75164 29.254C3.56122 25.7267 2.6796 26.2808 4.41932 16.2704C6.40038 4.84239 19.5442 3.94896 30.3502 7.00594C35.2849 8.41447 43.471 10.841 45.9621 11.6367C48.4532 12.4325 73.6958 19.1003 76.8626 20.0935C80.2266 21.1444 92.713 24.219 92.7326 26.3218L92.74 26.2901Z" fill="#FFDAD5"/>
<path d="M39.8886 73.6972C36.6338 72.3443 29.5009 68.6642 27.0078 64.7676" stroke="black" stroke-width="1.5"/>
<path d="M29.916 67.8118C30.3315 67 31.0794 65.2547 30.747 64.7676" stroke="black" stroke-width="1.5"/>
<path d="M29.9159 67.8115C29.1541 68.0145 27.4228 68.2986 26.5918 67.8115" stroke="black" stroke-width="1.5"/>
<path d="M72.2989 69.2324C75.5537 67.8794 82.6866 64.1993 85.1797 60.3027" stroke="black" stroke-width="1.5"/>
<path d="M82.2715 63.3469C81.856 62.5351 81.1081 60.7898 81.4405 60.3027" stroke="black" stroke-width="1.5"/>
<path d="M82.2716 63.3467C83.0334 63.5496 84.7647 63.8338 85.5957 63.3467" stroke="black" stroke-width="1.5"/>
<path d="M37.396 88.5127C37.7423 89.3921 39.0165 91.2728 41.3433 91.7598" stroke="black"/>
<path d="M36.98 91.5566C37.1622 91.9964 37.8329 92.9367 39.0575 93.1802" stroke="black"/>
<path d="M80.3018 76.4834C80.6816 77.2952 81.1111 79.4621 79.7907 81.6351" stroke="black"/>
<path d="M82.7734 77.9912C82.9568 78.4045 83.1475 79.515 82.4435 80.6509" stroke="black"/>
<path d="M37.3611 60.9966C37.3611 60.9966 40.4174 58.9174 44.1047 58.2531L64.2364 54.6261C64.2364 54.6261 70.0824 53.0634 70.6607 56.0162C71.239 58.9691 74.5877 77.9648 74.5877 77.9648C74.5877 77.9648 77.3461 90.7489 76.5017 91.2407C75.6574 91.7325 67.4618 92.8694 67.4618 92.8694C67.4618 92.8694 50.8639 95.8258 48.6576 96.3931C46.4512 96.9605 42.9173 97.6311 42.114 94.1753C41.3107 90.7195 37.3314 61.0019 37.3314 61.0019L37.3611 60.9966Z" fill="#252525"/>
</svg>
