<svg width="96" height="84" viewBox="0 0 96 84" fill="none" xmlns="http://www.w3.org/2000/svg">
<path d="M42.8326 0.861597C42.8326 0.861597 47.8843 0.016885 53.6162 0.016885H84.833C84.833 0.016885 94.0166 -0.26007 94.2434 1.42935C94.4701 3.11878 95.3897 14.017 95.3897 14.017C95.3897 14.017 96.7629 21.3978 95.3897 21.5778C94.0166 21.7578 81.3938 21.5778 81.3938 21.5778C81.3938 21.5778 55.6948 21.5501 52.243 21.6609C48.7913 21.7717 43.2988 21.7717 42.8326 19.7776C42.3665 17.7835 42.8326 0.861597 42.8326 0.861597Z" fill="#326BBA"/>
<path d="M25.0411 60.6365C25.0411 60.6365 30.0928 59.7918 35.8247 59.7918H67.0415C67.0415 59.7918 76.2251 59.5148 76.4518 61.2043C76.6786 62.8937 77.5982 73.7919 77.5982 73.7919C77.5982 73.7919 78.9714 81.1727 77.5982 81.3527C76.2251 81.5328 63.6023 81.3527 63.6023 81.3527C63.6023 81.3527 37.9033 81.325 34.4515 81.4358C30.9998 81.5466 25.5073 81.5466 25.0411 79.5525C24.575 77.5584 25.0411 60.6365 25.0411 60.6365Z" fill="#D0220A"/>
<path d="M55.103 48.0717C55.103 48.0717 55.7703 35.9269 55.5562 34.6873C55.3422 33.4478 55.0274 32.3754 53.5417 33.9492C52.056 35.523 46.3776 42.0411 44.5015 43.8656C42.6255 45.6901 39.0371 49.8962 38.5335 50.3419C37.9795 50.8433 36.2294 52.9185 35.4236 53.6427C34.7437 54.2556 34.2778 56.2472 36.2924 56.0801C38.3069 55.9129 43.0914 55.8851 45.2192 55.8294C49.0594 55.7458 54.8889 56.86 54.9896 54.1859C55.0904 51.4561 55.103 48.0578 55.103 48.0578V48.0717Z" fill="#EFA900"/>
<path d="M83.4042 29.8592C84.1031 29.1862 84.9292 22.9882 84.2302 22.862C83.5312 22.7358 75.08 20.31 70.1618 22.862C65.2436 25.4141 60.3126 29.06 59.4866 36.7302C58.6605 44.4005 60.6558 49.7851 65.4723 53.0243C70.2889 56.2634 76.9609 56.2494 78.8418 55.983C80.7226 55.7166 84.5098 54.6368 84.5098 54.6368C84.5098 54.6368 84.3573 48.3127 83.3025 47.6397C82.2477 46.9666 77.6726 49.6589 72.6273 48.7194C67.582 47.7799 66.6415 44.0078 66.5271 41.1753C66.4128 38.3428 66.2221 35.37 68.2809 31.7523C70.5049 27.854 77.7743 28.5271 79.0705 28.6533C80.3668 28.7795 83.4042 29.8592 83.4042 29.8592Z" fill="#FEDA9A"/>
<path d="M67.8466 31.5045L67.8464 31.505C65.7779 35.1398 65.9027 38.1659 66.0165 40.9257C66.0202 41.0159 66.0239 41.1058 66.0275 41.1955C66.0862 42.6488 66.3573 44.4005 67.3036 45.9214C68.263 47.4634 69.8851 48.7173 72.5357 49.2109C75.1658 49.7007 77.6558 49.2411 79.5814 48.7648C80.0134 48.6579 80.4053 48.5535 80.7641 48.458C81.2281 48.3343 81.6368 48.2255 82.0055 48.145C82.324 48.0756 82.5736 48.037 82.7635 48.0311C82.8569 48.0282 82.9245 48.0336 82.9715 48.0425C83.012 48.0501 83.0292 48.0588 83.0328 48.0607C83.0348 48.0624 83.0525 48.0768 83.082 48.1184C83.1163 48.1667 83.1565 48.2377 83.2 48.336C83.2876 48.5338 83.3717 48.803 83.4496 49.132C83.6048 49.7881 83.7201 50.6166 83.8043 51.4414C83.8881 52.2628 83.9396 53.0654 83.9701 53.6637C83.9821 53.8986 83.9909 54.1015 83.997 54.2612C83.9255 54.281 83.8449 54.3033 83.7565 54.3275C83.3739 54.4324 82.8445 54.5749 82.2569 54.7257C81.0736 55.0293 79.6813 55.3591 78.7716 55.4879C77.8848 55.6136 75.7951 55.6857 73.3306 55.3235C70.8673 54.9616 68.0755 54.1724 65.7513 52.6094C61.1387 49.5073 59.1701 44.3381 59.9837 36.7838C60.7827 29.3647 65.5265 25.8306 70.3921 23.3059C72.7127 22.1017 75.9276 22.0535 78.7247 22.3548C80.9478 22.5943 82.7897 23.0355 83.6653 23.2452C83.7728 23.2709 83.8657 23.2932 83.943 23.3111C83.9707 23.4434 83.9899 23.6478 83.9944 23.9221C84.0038 24.4987 83.9471 25.2807 83.8453 26.0934C83.7438 26.9042 83.5999 27.7266 83.4406 28.3816C83.3607 28.7099 83.2793 28.9863 83.201 29.1944C83.1934 29.2148 83.1859 29.234 83.1787 29.252C83.1442 29.2402 83.1078 29.2279 83.0696 29.2149C82.7618 29.1108 82.3374 28.9705 81.8715 28.826C80.9581 28.5428 79.8263 28.2245 79.119 28.1557C78.4643 28.0919 76.2747 27.8867 73.9571 28.1981C71.6707 28.5052 69.0822 29.3388 67.8466 31.5045Z" stroke="#FEB737" stroke-opacity="0.09"/>
<path d="M37.9904 25.8087C37.5984 26.0909 34.8042 25.6535 34.8422 25.2583C34.8801 24.8632 35.0065 20.0225 36.8019 17.7645C38.5972 15.5065 40.8604 13.3897 44.2867 14.0388C47.713 14.688 49.7739 16.5085 50.5072 19.5286C51.2405 22.5487 50.3049 26.1051 49.9256 27.0647C49.5463 28.0244 48.5601 29.8872 48.5601 29.8872C48.5601 29.8872 45.8418 28.9135 45.7028 28.2502C45.5637 27.5869 47.359 25.5406 47.6498 22.718C47.9406 19.8955 46.4487 18.8653 45.235 18.3996C44.0212 17.9339 42.7695 17.4117 40.911 18.0045C38.9133 18.6395 38.1927 22.6051 38.0662 23.3108C37.9398 24.0164 37.9904 25.7946 37.9904 25.7946V25.8087Z" fill="#DBF1FB"/>
<path d="M15.5674 13.1259C15.5674 13.1259 24.3882 12.5125 26.3861 12.3313C28.3839 12.15 30.0425 12.3313 30.3818 15.4682C30.7211 18.6052 30.5451 30.8044 30.3818 36.1581C30.2185 41.5119 30.4321 52.0381 30.5703 53.5159C30.7085 54.9938 31.3745 58.5072 29.0499 58.5072C26.7253 58.5072 16.8993 58.8697 16.56 57.4058C16.2208 55.9418 16.2333 39.4903 16.3967 37.636C16.56 35.7817 15.5674 13.1259 15.5674 13.1259Z" fill="#5C8666"/>
<path d="M1.26205 53.2382C0.52225 53.2382 0.158619 57.3644 0.0206894 58.3959C-0.11724 59.4274 0.434477 60.5014 1.67584 60.5437C3.41877 60.6003 10.4406 61.759 13.3998 61.8155C16.359 61.872 21.8386 61.5329 22.6536 61.6459C23.4687 61.759 25.3871 62.197 25.4373 60.9818C25.4874 59.7666 25.8762 54.6937 25.0737 54.4817C24.2712 54.2698 15.2054 53.8317 14.1772 53.8741C13.149 53.9165 2.1774 53.2383 1.27459 53.2241L1.26205 53.2382Z" fill="#C4D8C8"/>
<path d="M67.8431 38.5441C67.8431 38.5441 67.4707 34.5721 70.7068 31.9924C73.9429 29.4126 76.9351 29.8767 77.9881 29.9996C79.0411 30.1224 82.2901 30.9277 83.2789 32.9751C84.2677 35.0226 85.0896 36.8789 84.8327 39.2675C84.5759 41.6562 83.3945 45.3552 80.8518 46.6792C78.3091 48.0032 74.9061 48.5901 71.7598 46.6792C67.8174 44.2905 67.8303 38.5305 67.8303 38.5305L67.8431 38.5441Z" fill="#252525"/>
<path d="M12.6101 51.1466C12.6101 51.1466 12.3874 48.5259 14.3548 46.831C16.3222 45.1361 18.1411 45.4352 18.7845 45.5207C19.4279 45.6061 21.3953 46.1331 22.0016 47.4862C22.6079 48.8393 23.1028 50.0641 22.9543 51.6309C22.8059 53.1976 22.0882 55.6474 20.5291 56.5162C18.9701 57.385 16.9161 57.7696 14.9982 56.5162C12.6101 54.9495 12.6101 51.1608 12.6101 51.1608V51.1466Z" fill="#252525"/>
<path d="M55.6457 68.21C55.7091 68.4629 55.7217 69.0953 55.7471 69.7416C55.7598 70.3037 55.8232 70.4442 55.8105 70.6128C55.6964 71.8494 46.0733 71.8072 44.0447 71.7932C43.4488 71.7932 38.0096 71.5121 33.8256 71.6386C29.6417 71.7651 26.6875 71.8494 26.1297 71.8915C23.0107 72.1164 20.8046 72.4255 20.9948 75.5309C21.147 78.0602 22.7064 78.6363 24.8872 78.9876C27.0679 79.3389 29.946 79.2827 36.3994 79.4373L47.4299 79.3108C47.9243 79.2968 50.9546 79.1984 51.7533 79.1703C52.7422 79.1281 55.4935 79.3249 56.1401 79.367C56.3557 79.3811 56.3303 80.2382 56.3303 81.0532C56.3303 81.812 56.3683 82.5286 56.2923 82.5708C56.0514 82.6832 55.3794 82.5286 54.3144 82.5427C52.4126 82.5567 49.7374 82.7816 49.319 82.7535C48.4315 82.6973 39.3282 83.0486 38.4914 83.1048C37.5912 83.161 28.8556 82.8518 28.8556 82.8518C28.8556 82.8518 25.7493 82.7394 25.1788 82.613C24.6082 82.4865 19.8157 81.6153 18.8521 80.1258C18.0027 78.805 17.6857 79.1422 17.4321 74.7721C17.1405 69.7838 22.5923 67.8166 27.4483 67.7744C29.667 67.7604 33.3565 67.7744 34.4849 67.8025C35.6133 67.8306 46.91 67.5355 48.3427 67.5636C49.8642 67.5917 55.4301 67.3529 55.6457 68.2241V68.21Z" fill="#FFDAD5"/>
</svg>
